<svg viewBox="0 0 64 58" fill="current" xmlns="http://www.w3.org/2000/svg">
<path d="M31.9999 41.5999C37.3018 41.5999 41.5999 37.3018 41.5999 31.9999C41.5999 26.698 37.3018 22.3999 31.9999 22.3999C26.698 22.3999 22.3999 26.698 22.3999 31.9999C22.3999 37.3018 26.698 41.5999 31.9999 41.5999Z" fill="current"/>
<path d="M57.6 6.4H47.456L43.488 2.08C42.304 0.768 40.576 0 38.784 0H25.216C23.424 0 21.696 0.768 20.48 2.08L16.544 6.4H6.4C2.88 6.4 0 9.28 0 12.8V51.2C0 54.72 2.88 57.6 6.4 57.6H57.6C61.12 57.6 64 54.72 64 51.2V12.8C64 9.28 61.12 6.4 57.6 6.4ZM32 48C23.168 48 16 40.832 16 32C16 23.168 23.168 16 32 16C40.832 16 48 23.168 48 32C48 40.832 40.832 48 32 48Z" fill="current"/>
</svg>