<?xml version="1.0" encoding="UTF-8"?>
<svg enable-background="new 0 0 999.2 618" version="1.1" viewBox="0 0 999.2 618" xml:space="preserve" xmlns="http://www.w3.org/2000/svg">
<style type="text/css">
	.st0{fill:#FF5A00;}
	.st1{fill:#EB001B;}
	.st2{fill:#F79E1B;}
</style>
<rect class="st0" x="364" y="66.1" width="270.4" height="485.8"/>
<path class="st1" d="M382,309c0-98.7,46.4-186.3,117.6-242.9  C447.2,24.9,381.1,0,309,0C138.2,0,0,138.2,0,309s138.2,309,309,309c72.1,0,138.2-24.9,190.6-66.1C428.3,496.1,382,407.7,382,309z"/>
<path class="st2" d="M999.2,309c0,170.8-138.2,309-309,309  c-72.1,0-138.2-24.9-190.6-66.1c72.1-56.7,117.6-144.2,117.6-242.9S570.8,122.7,499.6,66.1C551.9,24.9,618,0,690.1,0  C861,0,999.2,139.1,999.2,309z"/>
</svg>